<svg width="84px" height="36px" viewBox="0 0 84 36" version="1.1" xmlns="http://www.w3.org/2000/svg" xmlns:xlink="http://www.w3.org/1999/xlink">
    <g id="Order-&amp;-Checkout-Flow5" stroke="none" stroke-width="1" fill="none" fill-rule="evenodd">
        <g id="Checkout" transform="translate(-230.000000, -1319.000000)" fill="#000000" fill-rule="nonzero">
            <g id="Apple_Pay_Mark_RGB_041619" transform="translate(230.000000, 1319.000000)">
                <g id="Group">
                    <g id="Path">
                        <path d="M16.0519846,4.59729 C17.0331508,3.37006385 17.6989638,1.72226077 17.52336,0.0384023077 C16.0870708,0.109820769 14.3343554,0.985970769 13.3196192,2.21415923 C12.4084938,3.26591308 11.6020731,4.98271154 11.8123062,6.59598231 C13.4246146,6.73583538 15.0354346,5.79008077 16.0519846,4.59729"></path>
                        <path d="M17.5050415,6.91097538 C15.1635808,6.77150308 13.1727669,8.23986692 12.0546,8.23986692 C10.9358169,8.23986692 9.22353923,6.98125846 7.37156769,7.01518154 C4.96111154,7.05058615 2.72448692,8.41347692 1.50128308,10.5811131 C-1.01463923,14.9174515 0.837332308,21.3497585 3.28393385,24.8814623 C4.47205846,26.6287085 5.90395154,28.5525554 7.79069077,28.4834492 C9.57334154,28.4134985 10.2720669,27.3291508 12.4389554,27.3291508 C14.6042515,27.3291508 15.2336562,28.4834492 17.1207,28.4484808 C19.0776115,28.4134915 20.30103,26.7003623 21.4891408,24.9514131 C22.8521423,22.9596438 23.4101077,21.0364269 23.4452008,20.93085 C23.4101008,20.8958815 19.6717223,19.4617454 19.6370585,15.1614485 C19.6017646,11.5607492 22.5721038,9.84805615 22.7119015,9.74184231 C21.0345231,7.26099231 18.4136538,6.98125846 17.5050415,6.91097538"></path>
                    </g>
                    <g transform="translate(27.692308, 1.384615)">
                        <path d="M10.2003577,0.6534 C15.2894838,0.6534 18.8332269,4.16138538 18.8332269,9.26874 C18.8332269,14.39433 15.2165631,17.9205369 10.0727446,17.9205369 L4.43810769,17.9205369 L4.43810769,26.8812 L0.367082308,26.8812 L0.367082308,0.6534 L10.2003577,0.6534 L10.2003577,0.6534 Z M4.43810077,14.5033615 L9.10932231,14.5033615 C12.6537646,14.5033615 14.6710454,12.5951123 14.6710454,9.28696846 C14.6710454,5.97917769 12.6537646,4.08881077 9.12755077,4.08881077 L4.43810077,4.08881077 L4.43810077,14.5033615 L4.43810077,14.5033615 Z" id="Shape"></path>
                        <path d="M19.8969023,21.4467508 C19.8969023,18.1021431 22.4597008,16.0484054 27.0040154,15.7938785 L32.2382838,15.4850123 L32.2382838,14.0128962 C32.2382838,11.8862308 30.8022785,10.6139492 28.4035569,10.6139492 C26.13105,10.6139492 24.7132731,11.7042785 24.3682962,13.4130392 L20.6604762,13.4130392 C20.8785462,9.9594 23.8227785,7.41483692 28.5486992,7.41483692 C33.1834638,7.41483692 36.1459246,9.86859692 36.1459246,13.7036769 L36.1459246,26.8812069 L32.3834262,26.8812069 L32.3834262,23.7367869 L32.2929762,23.7367869 C31.1844185,25.8634523 28.7667692,27.2083015 26.2586631,27.2083015 C22.5143862,27.2083015 19.8969023,24.8818015 19.8969023,21.4467508 Z M32.2382838,19.7201077 L32.2382838,18.2115346 L27.5305915,18.5021723 C25.1858631,18.6658962 23.8592423,19.7018792 23.8592423,21.3377192 C23.8592423,23.00967 25.2405554,24.1003454 27.3489923,24.1003454 C30.09339,24.1003454 32.2382838,22.2099785 32.2382838,19.7201077 Z" id="Shape"></path>
                        <path d="M39.6980792,33.9153923 L39.6980792,30.7345154 C39.9883638,30.80709 40.64256,30.80709 40.9700077,30.80709 C42.7874538,30.80709 43.7690977,30.0438554 44.3686015,28.0809208 C44.3686015,28.0444569 44.7142777,26.9176708 44.7142777,26.8994423 L37.8077054,7.76016692 L42.06033,7.76016692 L46.8956285,23.3188892 L46.96785,23.3188892 L51.8031554,7.76016692 L55.9471015,7.76016692 L48.7852962,27.8807331 C47.1501623,32.5158508 45.2597885,34.0061954 41.2974554,34.0061954 C40.9700146,34.0061954 39.9883708,33.9697315 39.6980792,33.9153923 Z" id="Path"></path>
                    </g>
                </g>
            </g>
        </g>
    </g>
</svg>