<svg width="512px" height="512px" viewBox="0 0 512 512" version="1.1" xmlns="http://www.w3.org/2000/svg" xmlns:xlink="http://www.w3.org/1999/xlink">
    <g id="FaviconPages" stroke="none" stroke-width="1" fill="none" fill-rule="evenodd">
        <g id="FaviconGroup-59">
            <circle id="FaviconOval" fill="#FFFFFF" cx="256" cy="256" r="256"></circle>
            <g id="FaviconGroup" transform="translate(86.050420, 94.655462)">
                <polygon id="FaviconFill-1" fill="#979894" points="317.571168 182.711639 311.969007 184.866481 254.564173 1.25055521e-12"></polygon>
                <path d="M65.1213498,189.473645 L322.412663,189.473645 L65.1213498,189.473645 Z" id="Fill-2" fill="#FFFFFE"></path>
                <line x1="65.1212424" y1="189.473538" x2="322.413093" y2="189.473538" id="FaviconStroke-3" stroke="#979894" stroke-width="7.07398346"></line>
                <g id="FaviconGroup-16" transform="translate(0.000000, 0.654454)">
                    <path d="M323.571489,186.925637 C323.571489,192.137961 319.346107,196.363879 314.133246,196.363879 C308.920922,196.363879 304.695541,192.137961 304.695541,186.925637 C304.695541,181.713313 308.920922,177.487394 314.133246,177.487394 C319.346107,177.487394 323.571489,181.713313 323.571489,186.925637" id="FaviconFill-4" fill="#979894"></path>
                    <path d="M78.8166548,186.925637 C78.8166548,192.137961 74.5912733,196.363879 69.3784123,196.363879 C64.1660882,196.363879 59.9407067,192.137961 59.9407067,186.925637 C59.9407067,181.713313 64.1660882,177.487394 69.3784123,177.487394 C74.5912733,177.487394 78.8166548,181.713313 78.8166548,186.925637" id="FaviconFill-6" fill="#979894"></path>
                    <polygon id="FaviconFill-8" fill="#979894" points="0.409704674 314.929405 64.2871202 186.973212 71.3509013 188.945486"></polygon>
                    <polygon id="FaviconFill-10" fill="#063852" points="303.325419 193.141764 79.6502937 193.141764 9.73899692 315.356722 86.0546812 315.356722 121.550248 248.80307 243.564918 248.80307 261.314313 315.356722 339.403057 315.356722"></polygon>
                    <polygon id="FaviconFill-12" fill="#F0810F" points="226.858472 181.334376 299.840137 181.334376 246.134459 0.487618368 246.133922 0.487618368 202.871149 91.2696901"></polygon>
                    <polygon id="FaviconFill-14" fill="#063852" points="202.870881 91.2697975 246.134191 0.487725761 182.405515 11.6023746 182.384573 11.8064215 85.4091413 181.334483 155.061084 181.334483"></polygon>
                </g>
            </g>
        </g>
    </g>
</svg>