<svg width="251px" height="90px" viewBox="0 0 251 90" version="1.1" xmlns="http://www.w3.org/2000/svg" xmlns:xlink="http://www.w3.org/1999/xlink">
    <g id="FOFPages" stroke="none" stroke-width="1" fill="none" fill-rule="evenodd">
        <g id="FOFGroup-102" transform="translate(-23.000000, -34.000000)">
            <rect id="RFOFectangle" x="0" y="0" width="296" height="157"></rect>
            <text id="FOF4" stroke="#FFFFFF" stroke-width="3" font-family="SFProDisplay-Semibold, SF Pro Display" font-size="111" font-weight="500" line-spacing="133" fill="#FFFFFF" fill-opacity="0">
                <tspan x="22.4331055" y="118">4</tspan>
            </text>
            <text id="FOF44" stroke="#FFFFFF" stroke-width="3" font-family="SFProDisplay-Semibold, SF Pro Display" font-size="111" font-weight="500" line-spacing="133" fill="#FFFFFF" fill-opacity="0">
                <tspan x="203.433105" y="118">4</tspan>
            </text>
            <path d="M148,34 C172.852814,34 193,54.1471863 193,79 C193,103.852814 172.852814,124 148,124 C123.147186,124 103,103.852814 103,79 C103,54.1471863 123.147186,34 148,34 Z M171.613997,80.8576923 L127.919521,80.8576923 L114.262493,104.732133 L129.170605,104.732133 L136.104591,91.731014 L159.939906,91.731014 L163.407213,104.732133 L178.661689,104.732133 L171.613997,80.8576923 Z M125.91293,77.7996434 C124.894713,77.7996434 124.069294,78.6251678 124.069294,79.6433846 C124.069294,80.0338449 124.190674,80.3959692 124.39776,80.6940715 L124.39776,80.6940715 L112.440035,104.648657 L125.508475,81.4426179 C125.638632,81.4717539 125.773986,81.4871259 125.91293,81.4871259 C126.931252,81.4871259 127.756671,80.6616014 127.756671,79.6433846 C127.756671,78.6251678 126.931252,77.7996434 125.91293,77.7996434 Z M162.088587,43 L172.948142,77.9709717 C172.318274,78.2642005 171.881647,78.9028277 171.881647,79.6433846 C171.881647,80.6616014 172.707066,81.4871259 173.725283,81.4871259 C174.743605,81.4871259 175.569024,80.6616014 175.569024,79.6433846 C175.569024,78.7545662 174.940068,78.0125762 174.102874,77.8383416 L174.102874,77.8383416 L162.088587,43 Z M160.441808,43.2231224 L147.992542,45.3943462 L147.988451,45.4342063 L129.0445,78.5511643 L142.650864,78.5511643 L151.990462,60.9571923 L156.676336,78.5511434 L170.933154,78.5511434 L160.441808,43.2231224 Z" id="FOFCombined-Shape" fill="#FFFFFF"></path>
        </g>
    </g>
</svg>